<svg width="20" height="21" viewBox="0 0 20 21" fill="none" xmlns="http://www.w3.org/2000/svg">
<path d="M18.3332 14.4344V16.9344C18.3341 17.1665 18.2866 17.3962 18.1936 17.6088C18.1006 17.8215 17.9643 18.0124 17.7933 18.1693C17.6222 18.3262 17.4203 18.4456 17.2005 18.52C16.9806 18.5943 16.7477 18.6219 16.5165 18.6011C13.9522 18.3224 11.489 17.4462 9.32486 16.0427C7.31139 14.7633 5.60431 13.0562 4.32486 11.0427C2.91651 8.86873 2.04007 6.39355 1.76653 3.81772C1.7457 3.58728 1.77309 3.35502 1.84695 3.13574C1.9208 2.91646 2.03951 2.71497 2.1955 2.54407C2.3515 2.37318 2.54137 2.23665 2.75302 2.14316C2.96468 2.04967 3.19348 2.00128 3.42486 2.00106H5.92486C6.32928 1.99708 6.72136 2.14029 7.028 2.404C7.33464 2.66771 7.53493 3.03393 7.59153 3.43439C7.69705 4.23445 7.89274 5.02 8.17486 5.77606C8.28698 6.07433 8.31125 6.39849 8.24478 6.71012C8.17832 7.02176 8.02392 7.30782 7.79986 7.53439L6.74153 8.59272C7.92783 10.679 9.65524 12.4064 11.7415 13.5927L12.7999 12.5344C13.0264 12.3103 13.3125 12.1559 13.6241 12.0895C13.9358 12.023 14.2599 12.0473 14.5582 12.1594C15.3143 12.4415 16.0998 12.6372 16.8999 12.7427C17.3047 12.7998 17.6744 13.0037 17.9386 13.3156C18.2029 13.6275 18.3433 14.0257 18.3332 14.4344Z" stroke="#0A0A0A" stroke-width="1.25" stroke-linecap="round" stroke-linejoin="round"/>
</svg>
